{
    "asset" : {
        "generator" : "Khronos glTF Blender I/O v3.2.43",
        "version" : "2.0"
    },
    "scene" : 0,
    "scenes" : [
        {
            "name" : "Scene",
            "nodes" : [
                0
            ]
        }
    ],
    "nodes" : [
        {
            "mesh" : 0,
            "name" : "TQ3_ARD-node"
        }
    ],
    "materials" : [
        {
            "doubleSided" : true,
            "name" : "TQ3_ARD_front",
            "pbrMetallicRoughness" : {
                "baseColorTexture" : {
                    "index" : 0
                },
                "metallicFactor" : 0
            }
        },
        {
            "doubleSided" : true,
            "name" : "TQ3_ARD_back",
            "pbrMetallicRoughness" : {
                "metallicFactor" : 0
            }
        },
        {
            "doubleSided" : true,
            "name" : "TQ3_ARD_edge",
            "pbrMetallicRoughness" : {
                "baseColorTexture" : {
                    "index" : 1
                },
                "metallicFactor" : 0,
                "roughnessFactor" : 0.5
            }
        }
    ],
    "meshes" : [
        {
            "name" : "TQ3_ARD-geom",
            "primitives" : [
                {
                    "attributes" : {
                        "POSITION" : 0,
                        "NORMAL" : 1,
                        "TEXCOORD_0" : 2
                    },
                    "indices" : 3,
                    "material" : 0
                },
                {
                    "attributes" : {
                        "POSITION" : 4,
                        "NORMAL" : 5,
                        "TEXCOORD_0" : 6
                    },
                    "indices" : 7,
                    "material" : 1
                },
                {
                    "attributes" : {
                        "POSITION" : 8,
                        "NORMAL" : 9,
                        "TEXCOORD_0" : 10
                    },
                    "indices" : 11,
                    "material" : 2
                }
            ]
        }
    ],
    "textures" : [
        {
            "sampler" : 0,
            "source" : 0
        },
        {
            "sampler" : 0,
            "source" : 1
        }
    ],
    "images" : [
        {
            "bufferView" : 4,
            "mimeType" : "image/jpeg",
            "name" : "2-01"
        },
        {
            "bufferView" : 13,
            "mimeType" : "image/png",
            "name" : "TQ3_ARD-I1"
        }
    ],
    "accessors" : [
        {
            "bufferView" : 0,
            "componentType" : 5126,
            "count" : 2829,
            "max" : [
                0.13681484758853912,
                0.11318344622850418,
                0.04227412864565849
            ],
            "min" : [
                -0.138772651553154,
                -0.07290393859148026,
                -0.04731342941522598
            ],
            "type" : "VEC3"
        },
        {
            "bufferView" : 1,
            "componentType" : 5126,
            "count" : 2829,
            "type" : "VEC3"
        },
        {
            "bufferView" : 2,
            "componentType" : 5126,
            "count" : 2829,
            "type" : "VEC2"
        },
        {
            "bufferView" : 3,
            "componentType" : 5123,
            "count" : 4383,
            "type" : "SCALAR"
        },
        {
            "bufferView" : 5,
            "componentType" : 5126,
            "count" : 2560,
            "max" : [
                0.13581238687038422,
                0.11238144338130951,
                0.0414634607732296
            ],
            "min" : [
                -0.1377464234828949,
                -0.07261011749505997,
                -0.047093283385038376
            ],
            "type" : "VEC3"
        },
        {
            "bufferView" : 6,
            "componentType" : 5126,
            "count" : 2560,
            "type" : "VEC3"
        },
        {
            "bufferView" : 7,
            "componentType" : 5126,
            "count" : 2560,
            "type" : "VEC2"
        },
        {
            "bufferView" : 8,
            "componentType" : 5123,
            "count" : 4383,
            "type" : "SCALAR"
        },
        {
            "bufferView" : 9,
            "componentType" : 5126,
            "count" : 3491,
            "max" : [
                0.13681484758853912,
                0.11318344622850418,
                0.04227412864565849
            ],
            "min" : [
                -0.138772651553154,
                -0.07290393859148026,
                -0.04731342941522598
            ],
            "type" : "VEC3"
        },
        {
            "bufferView" : 10,
            "componentType" : 5126,
            "count" : 3491,
            "type" : "VEC3"
        },
        {
            "bufferView" : 11,
            "componentType" : 5126,
            "count" : 3491,
            "type" : "VEC2"
        },
        {
            "bufferView" : 12,
            "componentType" : 5123,
            "count" : 6414,
            "type" : "SCALAR"
        }
    ],
    "bufferViews" : [
        {
            "buffer" : 0,
            "byteLength" : 33948,
            "byteOffset" : 0
        },
        {
            "buffer" : 0,
            "byteLength" : 33948,
            "byteOffset" : 33948
        },
        {
            "buffer" : 0,
            "byteLength" : 22632,
            "byteOffset" : 67896
        },
        {
            "buffer" : 0,
            "byteLength" : 8766,
            "byteOffset" : 90528
        },
        {
            "buffer" : 0,
            "byteLength" : 530751,
            "byteOffset" : 99296
        },
        {
            "buffer" : 0,
            "byteLength" : 30720,
            "byteOffset" : 630048
        },
        {
            "buffer" : 0,
            "byteLength" : 30720,
            "byteOffset" : 660768
        },
        {
            "buffer" : 0,
            "byteLength" : 20480,
            "byteOffset" : 691488
        },
        {
            "buffer" : 0,
            "byteLength" : 8766,
            "byteOffset" : 711968
        },
        {
            "buffer" : 0,
            "byteLength" : 41892,
            "byteOffset" : 720736
        },
        {
            "buffer" : 0,
            "byteLength" : 41892,
            "byteOffset" : 762628
        },
        {
            "buffer" : 0,
            "byteLength" : 27928,
            "byteOffset" : 804520
        },
        {
            "buffer" : 0,
            "byteLength" : 12828,
            "byteOffset" : 832448
        },
        {
            "buffer" : 0,
            "byteLength" : 767,
            "byteOffset" : 845276
        }
    ],
    "samplers" : [
        {
            "magFilter" : 9729,
            "minFilter" : 9987
        }
    ],
    "buffers" : [
        {
            "byteLength" : 846044,
            "uri" : "data:application/octet-stream;base64,"
        }
    ]
}
