{
    "asset" : {
        "generator" : "Khronos glTF Blender I/O v3.2.43",
        "version" : "2.0"
    },
    "scene" : 0,
    "scenes" : [
        {
            "name" : "Scene",
            "nodes" : [
                0,
                1,
                2,
                3,
                4,
                5,
                6
            ]
        }
    ],
    "nodes" : [
        {
            "mesh" : 0,
            "name" : "TQ_ARD-node"
        },
        {
            "mesh" : 1,
            "name" : "Plane.001"
        },
        {
            "mesh" : 2,
            "name" : "Plane.002"
        },
        {
            "mesh" : 3,
            "name" : "Plane.003"
        },
        {
            "mesh" : 4,
            "name" : "Text",
            "rotation" : [
                0.5000000596046448,
                0.5000000596046448,
                -0.5,
                0.5
            ],
            "scale" : [
                0.03892824053764343,
                0.03892824053764343,
                0.03892824053764343
            ],
            "translation" : [
                -0.0024367328733205795,
                0.000857673236168921,
                -0.1612289845943451
            ]
        },
        {
            "mesh" : 5,
            "name" : "Text.001",
            "rotation" : [
                0,
                0.7071068286895752,
                -0.7071068286895752,
                5.338509012631221e-08
            ],
            "scale" : [
                0.03892824053764343,
                0.03892824053764343,
                0.03892824053764343
            ],
            "translation" : [
                0.27345067262649536,
                0.000857673236168921,
                0.02622191607952118
            ]
        },
        {
            "mesh" : 6,
            "name" : "Text.002",
            "rotation" : [
                0.5000000596046448,
                0.5000000596046448,
                -0.5,
                0.5
            ],
            "scale" : [
                0.03892824053764343,
                0.03892824053764343,
                0.03892824053764343
            ],
            "translation" : [
                -0.20711615681648254,
                0.07481595873832703,
                -0.12267175316810608
            ]
        }
    ],
    "materials" : [
        {
            "doubleSided" : true,
            "name" : "TQ_ARD_front",
            "pbrMetallicRoughness" : {
                "baseColorTexture" : {
                    "index" : 0
                },
                "metallicFactor" : 0
            }
        },
        {
            "doubleSided" : true,
            "name" : "TQ_ARD_back",
            "pbrMetallicRoughness" : {
                "baseColorFactor" : [
                    0.996078372001648,
                    0.9019607901573181,
                    0.6627451181411743,
                    1
                ],
                "metallicFactor" : 0,
                "roughnessFactor" : 0.5
            }
        },
        {
            "doubleSided" : true,
            "name" : "TQ_ARD_edge",
            "pbrMetallicRoughness" : {
                "baseColorTexture" : {
                    "index" : 1
                },
                "metallicFactor" : 0,
                "roughnessFactor" : 0.5
            }
        },
        {
            "doubleSided" : true,
            "name" : "Material.001",
            "pbrMetallicRoughness" : {
                "baseColorFactor" : [
                    0.8000000715255737,
                    0,
                    0.00490071065723896,
                    1
                ],
                "metallicFactor" : 0,
                "roughnessFactor" : 0.5
            }
        }
    ],
    "meshes" : [
        {
            "name" : "TQ_ARD-geom",
            "primitives" : [
                {
                    "attributes" : {
                        "POSITION" : 0,
                        "NORMAL" : 1,
                        "TEXCOORD_0" : 2
                    },
                    "indices" : 3,
                    "material" : 0
                },
                {
                    "attributes" : {
                        "POSITION" : 4,
                        "NORMAL" : 5,
                        "TEXCOORD_0" : 6
                    },
                    "indices" : 7,
                    "material" : 1
                },
                {
                    "attributes" : {
                        "POSITION" : 8,
                        "NORMAL" : 9,
                        "TEXCOORD_0" : 10
                    },
                    "indices" : 11,
                    "material" : 2
                }
            ]
        },
        {
            "name" : "Plane.001",
            "primitives" : [
                {
                    "attributes" : {
                        "POSITION" : 12,
                        "NORMAL" : 13,
                        "TEXCOORD_0" : 14
                    },
                    "indices" : 15,
                    "material" : 3
                }
            ]
        },
        {
            "name" : "Plane.002",
            "primitives" : [
                {
                    "attributes" : {
                        "POSITION" : 16,
                        "NORMAL" : 17,
                        "TEXCOORD_0" : 18
                    },
                    "indices" : 19,
                    "material" : 3
                }
            ]
        },
        {
            "name" : "Plane.003",
            "primitives" : [
                {
                    "attributes" : {
                        "POSITION" : 20,
                        "NORMAL" : 21,
                        "TEXCOORD_0" : 22
                    },
                    "indices" : 23,
                    "material" : 3
                }
            ]
        },
        {
            "name" : "Text",
            "primitives" : [
                {
                    "attributes" : {
                        "POSITION" : 24,
                        "NORMAL" : 25,
                        "TEXCOORD_0" : 26
                    },
                    "indices" : 27,
                    "material" : 3
                }
            ]
        },
        {
            "name" : "Text.001",
            "primitives" : [
                {
                    "attributes" : {
                        "POSITION" : 28,
                        "NORMAL" : 29,
                        "TEXCOORD_0" : 30
                    },
                    "indices" : 31,
                    "material" : 3
                }
            ]
        },
        {
            "name" : "Text.002",
            "primitives" : [
                {
                    "attributes" : {
                        "POSITION" : 32,
                        "NORMAL" : 33,
                        "TEXCOORD_0" : 34
                    },
                    "indices" : 35,
                    "material" : 3
                }
            ]
        }
    ],
    "textures" : [
        {
            "sampler" : 0,
            "source" : 0
        },
        {
            "sampler" : 0,
            "source" : 1
        }
    ],
    "images" : [
        {
            "bufferView" : 4,
            "mimeType" : "image/png",
            "name" : "CXCX-01"
        },
        {
            "bufferView" : 13,
            "mimeType" : "image/png",
            "name" : "TQ_ARD-I1"
        }
    ],
    "accessors" : [
        {
            "bufferView" : 0,
            "componentType" : 5126,
            "count" : 1472,
            "max" : [
                0.1632591336965561,
                0.17468036711215973,
                0.11622294783592224
            ],
            "min" : [
                -0.1639140397310257,
                0.0015053153038024902,
                -0.12095312774181366
            ],
            "type" : "VEC3"
        },
        {
            "bufferView" : 1,
            "componentType" : 5126,
            "count" : 1472,
            "type" : "VEC3"
        },
        {
            "bufferView" : 2,
            "componentType" : 5126,
            "count" : 1472,
            "type" : "VEC2"
        },
        {
            "bufferView" : 3,
            "componentType" : 5123,
            "count" : 2517,
            "type" : "SCALAR"
        },
        {
            "bufferView" : 5,
            "componentType" : 5126,
            "count" : 1228,
            "max" : [
                0.1612067073583603,
                0.17309285700321198,
                0.114667147397995
            ],
            "min" : [
                -0.16186155378818512,
                0.003092750906944275,
                -0.11936566233634949
            ],
            "type" : "VEC3"
        },
        {
            "bufferView" : 6,
            "componentType" : 5126,
            "count" : 1228,
            "type" : "VEC3"
        },
        {
            "bufferView" : 7,
            "componentType" : 5126,
            "count" : 1228,
            "type" : "VEC2"
        },
        {
            "bufferView" : 8,
            "componentType" : 5123,
            "count" : 2517,
            "type" : "SCALAR"
        },
        {
            "bufferView" : 9,
            "componentType" : 5126,
            "count" : 2222,
            "max" : [
                0.1632591336965561,
                0.17468036711215973,
                0.11622288823127747
            ],
            "min" : [
                -0.16391398012638092,
                0.0015053153038024902,
                -0.12095305323600769
            ],
            "type" : "VEC3"
        },
        {
            "bufferView" : 10,
            "componentType" : 5126,
            "count" : 2222,
            "type" : "VEC3"
        },
        {
            "bufferView" : 11,
            "componentType" : 5126,
            "count" : 2222,
            "type" : "VEC2"
        },
        {
            "bufferView" : 12,
            "componentType" : 5123,
            "count" : 3270,
            "type" : "SCALAR"
        },
        {
            "bufferView" : 14,
            "componentType" : 5126,
            "count" : 144,
            "max" : [
                0.16294796764850616,
                0.001467354129999876,
                -0.12486746907234192
            ],
            "min" : [
                -0.1645202487707138,
                0.0010601066751405597,
                -0.16098962724208832
            ],
            "type" : "VEC3"
        },
        {
            "bufferView" : 15,
            "componentType" : 5126,
            "count" : 144,
            "type" : "VEC3"
        },
        {
            "bufferView" : 16,
            "componentType" : 5126,
            "count" : 144,
            "type" : "VEC2"
        },
        {
            "bufferView" : 17,
            "componentType" : 5123,
            "count" : 216,
            "type" : "SCALAR"
        },
        {
            "bufferView" : 18,
            "componentType" : 5126,
            "count" : 144,
            "max" : [
                0.20797832310199738,
                0.0014673542464151978,
                0.1213468462228775
            ],
            "min" : [
                0.1718561351299286,
                0.0010601066751405597,
                -0.12069399654865265
            ],
            "type" : "VEC3"
        },
        {
            "bufferView" : 19,
            "componentType" : 5126,
            "count" : 144,
            "type" : "VEC3"
        },
        {
            "bufferView" : 20,
            "componentType" : 5126,
            "count" : 144,
            "type" : "VEC2"
        },
        {
            "bufferView" : 21,
            "componentType" : 5123,
            "count" : 216,
            "type" : "SCALAR"
        },
        {
            "bufferView" : 22,
            "componentType" : 5126,
            "count" : 144,
            "max" : [
                -0.17082569003105164,
                0.17521768808364868,
                -0.12105986475944519
            ],
            "min" : [
                -0.20694787800312042,
                0.0013021511258557439,
                -0.12146712094545364
            ],
            "type" : "VEC3"
        },
        {
            "bufferView" : 23,
            "componentType" : 5126,
            "count" : 144,
            "type" : "VEC3"
        },
        {
            "bufferView" : 24,
            "componentType" : 5126,
            "count" : 144,
            "type" : "VEC2"
        },
        {
            "bufferView" : 25,
            "componentType" : 5123,
            "count" : 216,
            "type" : "SCALAR"
        },
        {
            "bufferView" : 26,
            "componentType" : 5126,
            "count" : 1988,
            "max" : [
                1.437999963760376,
                0.024000000208616257,
                0.009000000543892384
            ],
            "min" : [
                0.06400000303983688,
                -0.024000000208616257,
                -0.6910000443458557
            ],
            "type" : "VEC3"
        },
        {
            "bufferView" : 27,
            "componentType" : 5126,
            "count" : 1988,
            "type" : "VEC3"
        },
        {
            "bufferView" : 28,
            "componentType" : 5126,
            "count" : 1988,
            "type" : "VEC2"
        },
        {
            "bufferView" : 29,
            "componentType" : 5123,
            "count" : 3732,
            "type" : "SCALAR"
        },
        {
            "bufferView" : 30,
            "componentType" : 5126,
            "count" : 2030,
            "max" : [
                1.437999963760376,
                0.024000000208616257,
                0.009000000543892384
            ],
            "min" : [
                0.03400000184774399,
                -0.024000000208616257,
                -0.6910000443458557
            ],
            "type" : "VEC3"
        },
        {
            "bufferView" : 31,
            "componentType" : 5126,
            "count" : 2030,
            "type" : "VEC3"
        },
        {
            "bufferView" : 32,
            "componentType" : 5126,
            "count" : 2030,
            "type" : "VEC2"
        },
        {
            "bufferView" : 33,
            "componentType" : 5123,
            "count" : 3732,
            "type" : "SCALAR"
        },
        {
            "bufferView" : 34,
            "componentType" : 5126,
            "count" : 66,
            "max" : [
                1.2999999523162842,
                0.024000000208616257,
                0.009000000543892384
            ],
            "min" : [
                0.20200000703334808,
                -0.024000000208616257,
                -0.6820000410079956
            ],
            "type" : "VEC3"
        },
        {
            "bufferView" : 35,
            "componentType" : 5126,
            "count" : 66,
            "type" : "VEC3"
        },
        {
            "bufferView" : 36,
            "componentType" : 5126,
            "count" : 66,
            "type" : "VEC2"
        },
        {
            "bufferView" : 37,
            "componentType" : 5123,
            "count" : 132,
            "type" : "SCALAR"
        }
    ],
    "bufferViews" : [
        {
            "buffer" : 0,
            "byteLength" : 17664,
            "byteOffset" : 0
        },
        {
            "buffer" : 0,
            "byteLength" : 17664,
            "byteOffset" : 17664
        },
        {
            "buffer" : 0,
            "byteLength" : 11776,
            "byteOffset" : 35328
        },
        {
            "buffer" : 0,
            "byteLength" : 5034,
            "byteOffset" : 47104
        },
        {
            "buffer" : 0,
            "byteLength" : 1460049,
            "byteOffset" : 52140
        },
        {
            "buffer" : 0,
            "byteLength" : 14736,
            "byteOffset" : 1512192
        },
        {
            "buffer" : 0,
            "byteLength" : 14736,
            "byteOffset" : 1526928
        },
        {
            "buffer" : 0,
            "byteLength" : 9824,
            "byteOffset" : 1541664
        },
        {
            "buffer" : 0,
            "byteLength" : 5034,
            "byteOffset" : 1551488
        },
        {
            "buffer" : 0,
            "byteLength" : 26664,
            "byteOffset" : 1556524
        },
        {
            "buffer" : 0,
            "byteLength" : 26664,
            "byteOffset" : 1583188
        },
        {
            "buffer" : 0,
            "byteLength" : 17776,
            "byteOffset" : 1609852
        },
        {
            "buffer" : 0,
            "byteLength" : 6540,
            "byteOffset" : 1627628
        },
        {
            "buffer" : 0,
            "byteLength" : 767,
            "byteOffset" : 1634168
        },
        {
            "buffer" : 0,
            "byteLength" : 1728,
            "byteOffset" : 1634936
        },
        {
            "buffer" : 0,
            "byteLength" : 1728,
            "byteOffset" : 1636664
        },
        {
            "buffer" : 0,
            "byteLength" : 1152,
            "byteOffset" : 1638392
        },
        {
            "buffer" : 0,
            "byteLength" : 432,
            "byteOffset" : 1639544
        },
        {
            "buffer" : 0,
            "byteLength" : 1728,
            "byteOffset" : 1639976
        },
        {
            "buffer" : 0,
            "byteLength" : 1728,
            "byteOffset" : 1641704
        },
        {
            "buffer" : 0,
            "byteLength" : 1152,
            "byteOffset" : 1643432
        },
        {
            "buffer" : 0,
            "byteLength" : 432,
            "byteOffset" : 1644584
        },
        {
            "buffer" : 0,
            "byteLength" : 1728,
            "byteOffset" : 1645016
        },
        {
            "buffer" : 0,
            "byteLength" : 1728,
            "byteOffset" : 1646744
        },
        {
            "buffer" : 0,
            "byteLength" : 1152,
            "byteOffset" : 1648472
        },
        {
            "buffer" : 0,
            "byteLength" : 432,
            "byteOffset" : 1649624
        },
        {
            "buffer" : 0,
            "byteLength" : 23856,
            "byteOffset" : 1650056
        },
        {
            "buffer" : 0,
            "byteLength" : 23856,
            "byteOffset" : 1673912
        },
        {
            "buffer" : 0,
            "byteLength" : 15904,
            "byteOffset" : 1697768
        },
        {
            "buffer" : 0,
            "byteLength" : 7464,
            "byteOffset" : 1713672
        },
        {
            "buffer" : 0,
            "byteLength" : 24360,
            "byteOffset" : 1721136
        },
        {
            "buffer" : 0,
            "byteLength" : 24360,
            "byteOffset" : 1745496
        },
        {
            "buffer" : 0,
            "byteLength" : 16240,
            "byteOffset" : 1769856
        },
        {
            "buffer" : 0,
            "byteLength" : 7464,
            "byteOffset" : 1786096
        },
        {
            "buffer" : 0,
            "byteLength" : 792,
            "byteOffset" : 1793560
        },
        {
            "buffer" : 0,
            "byteLength" : 792,
            "byteOffset" : 1794352
        },
        {
            "buffer" : 0,
            "byteLength" : 528,
            "byteOffset" : 1795144
        },
        {
            "buffer" : 0,
            "byteLength" : 264,
            "byteOffset" : 1795672
        }
    ],
    "samplers" : [
        {
            "magFilter" : 9729,
            "minFilter" : 9987
        }
    ],
    "buffers" : [
        {
            "byteLength" : 1795936,
            "uri" : "data:application/octet-stream;base64,"
        }
    ]
}
